<svg width="40" height="40" fill="none" xmlns="http://www.w3.org/2000/svg">
    <g opacity=".5">
        <mask id="a" style="mask-type:alpha" maskUnits="userSpaceOnUse" x="0" y="0" width="40" height="40">
            <path fill="#D9D9D9" d="M0 0h40v40H0z"/>
        </mask>
        <g mask="url(#a)">
            <path d="M9.417 29.083c1.639-1.167 3.326-2.076 5.062-2.729 1.736-.653 3.576-.979 5.521-.979 1.945 0 3.792.326 5.542.979s3.444 1.562 5.083 2.729c1.139-1.389 1.965-2.833 2.479-4.333s.771-3.083.771-4.75c0-3.917-1.333-7.208-4-9.875s-5.958-4-9.875-4-7.208 1.333-9.875 4-4 5.958-4 9.875c0 1.667.264 3.25.792 4.75.527 1.5 1.36 2.944 2.5 4.333ZM20 21.375c-1.611 0-2.972-.556-4.083-1.667-1.111-1.11-1.667-2.472-1.667-4.083 0-1.611.556-2.972 1.667-4.083 1.11-1.111 2.472-1.667 4.083-1.667 1.611 0 2.972.556 4.083 1.667 1.111 1.11 1.667 2.472 1.667 4.083 0 1.639-.556 3.007-1.667 4.104-1.11 1.097-2.472 1.646-4.083 1.646Zm0 15.292c-2.278 0-4.43-.438-6.458-1.313a16.898 16.898 0 0 1-5.313-3.583 16.965 16.965 0 0 1-3.583-5.292C3.771 24.465 3.333 22.305 3.333 20c0-2.305.438-4.465 1.313-6.479a16.965 16.965 0 0 1 3.583-5.292 16.965 16.965 0 0 1 5.292-3.583c2.014-.875 4.174-1.313 6.479-1.313 2.305 0 4.465.438 6.479 1.313a16.965 16.965 0 0 1 5.292 3.583 16.965 16.965 0 0 1 3.583 5.292c.875 2.014 1.313 4.174 1.313 6.479 0 2.278-.438 4.43-1.313 6.458a16.898 16.898 0 0 1-3.583 5.313 16.965 16.965 0 0 1-5.292 3.583c-2.014.875-4.174 1.313-6.479 1.313Zm0-2.792c1.5 0 2.958-.215 4.375-.646 1.417-.43 2.778-1.16 4.083-2.187a16.847 16.847 0 0 0-4.083-2.125c-1.417-.5-2.875-.75-4.375-.75s-2.958.25-4.375.75a16.847 16.847 0 0 0-4.083 2.125c1.305 1.027 2.666 1.756 4.083 2.187 1.417.43 2.875.646 4.375.646Zm0-15.25c.861 0 1.57-.278 2.125-.833.555-.556.833-1.278.833-2.167 0-.861-.278-1.57-.833-2.125-.555-.555-1.264-.833-2.125-.833s-1.57.278-2.125.833c-.555.555-.833 1.264-.833 2.125 0 .889.278 1.611.833 2.167.555.555 1.264.833 2.125.833Z" fill="#FF8E1F"/>
        </g>
    </g>
</svg>
