<svg width="24" height="24" fill="none" xmlns="http://www.w3.org/2000/svg">
    <mask id="a" style="mask-type:alpha" maskUnits="userSpaceOnUse" x="0" y="0" width="24" height="24">
        <path fill="#D9D9D9" d="M0 0h24v24H0z"/>
    </mask>
    <g mask="url(#a)">
        <path d="M8.5 6c-.55 0-1.02-.196-1.412-.588A1.923 1.923 0 0 1 6.5 4c0-.55.196-1.021.588-1.413A1.925 1.925 0 0 1 8.5 2c.55 0 1.021.196 1.413.587.391.392.587.863.587 1.413s-.196 1.02-.587 1.412A1.927 1.927 0 0 1 8.5 6ZM14 20H7.55c-.55 0-1.054-.196-1.512-.587-.459-.392-.746-.863-.863-1.413L3 7h2.05l2.2 11H14v2Zm5.5 2-2.9-5H9.65a1.957 1.957 0 0 1-1.95-1.6l-1.1-5.35c-.183-.8.004-1.508.562-2.125C7.721 7.308 8.4 7 9.2 7c.583 0 1.113.175 1.588.525.475.35.779.825.912 1.425L12.8 14h3.25c.35 0 .675.092.975.275.3.183.542.425.725.725l3.5 6-1.75 1Z" fill="#081B31"/>
    </g>
</svg>
