<svg width="64" height="48" fill="none" xmlns="http://www.w3.org/2000/svg">
    <path d="m7.22 16.09 2.29-1.84a2.45 2.45 0 0 1 1.32-.49h32.78c.478.03.937.201 1.32.49l6.85 5.49c.69.55.79 1 .2 1H7.22v-4.65Z" fill="#FF8E1F"/>
    <path d="M2.25 31.83c0 .5.42.8.91.91 1.08.23 3.84.91 4.35.91h53.34a.91.91 0 0 0 .91-.91v-2.9l-.3-.81v-6.38l-1.52-6a1.42 1.42 0 0 0-1.22-1.11H3.62a1.24 1.24 0 0 0-1 1.11c-.16 2.17-.35 5.88-.35 5.88l-.02 9.3Z" fill="#081B31"/>
    <path d="M2.07 31.52c0 .51.42.81.92.92 1.08.23 3.86.92 4.38.92H61a.92.92 0 0 0 .92-.92v-2.93l-.31-.81v-6.42l-1.53-6a1.42 1.42 0 0 0-1.23-1.12H3.45a1.24 1.24 0 0 0-1 1.12c-.16 2.18-.35 5.91-.35 5.91l-.03 9.33Z" fill="#FF8E1F"/>
    <path d="M60.24 28.76v4.61h-6.65v-4.61h6.65Zm-6.47 4.42H60v-4h-6.2l-.03 4Z" fill="#081B31"/>
    <path d="M2.09 21.95c0-.86.2-3.82.34-5.67a.94.94 0 0 1 .92-.92h55.84a.91.91 0 0 1 .91.72L61.63 22v6.7l.18.48h-8.23c-4.44 0-5.52-7.24-12.67-7.24l-38.82.01Z" fill="#081B31"/>
    <path d="M32.38 15.77h-9.76v5.58h9.76v-5.58ZM59.53 15.77h.15c.28 0 .37.11.43.35l1.4 5.42h-.62l-1.36-5.77ZM59 15.77c0 .07 1.37 5.58 1.37 5.58h-7.95v-5.58H59ZM22.08 15.77h-9.76v5.58h9.76v-5.58ZM11.79 21.35H2.52c.06-1.14.2-3.51.32-5.06a.53.53 0 0 1 .51-.52h8.45l-.01 5.58ZM42.83 15.77h-9.96v5.58h9.96v-5.58ZM43.36 15.77h8.54v5.58h-8.54v-5.58ZM61.65 22.5h-1.34v5.59h1.34V22.5ZM59.66 22.48h-5.84v5.43h5.84v-5.43ZM52.69 27.91l-5.18-5.43h5.64v5.43h-.46ZM62 29.5h-1.53v.71H62v-.71Z" fill="#CED1D6"/>
    <path d="M61.35 29.59h-.7v.53h.7v-.53Z" fill="#F49625"/>
    <path d="M3.53 29.5H2v.71h1.53v-.71Z" fill="#CED1D6"/>
    <path d="M3.35 29.59h-.7v.53h.7v-.53Z" fill="#F49625"/>
    <path d="M2.54 29.59H2v.53h.54v-.53Z" fill="#DB3535"/>
    <path d="M62 31.42h-.64v.6H62v-.6ZM53.12 29.5h-1.53v.71h1.53v-.71Z" fill="#CED1D6"/>
    <path d="M52.95 29.59h-1.19v.53h1.19v-.53Z" fill="#F49625"/>
    <path d="M55.74 29.61h-1.53v.37h1.53v-.37Z" fill="#081B31"/>
    <path d="M40.59 29.5h-1.53v.71h1.53v-.71Z" fill="#CED1D6"/>
    <path d="M40.43 29.59h-1.19v.53h1.19v-.53Z" fill="#F49625"/>
    <path d="M27.07 29.5h-1.53v.71h1.53v-.71Z" fill="#CED1D6"/>
    <path d="M26.91 29.59h-1.19v.53h1.19v-.53Z" fill="#F49625"/>
    <path d="M7.75 29.5H6.22v.71h1.53v-.71Z" fill="#CED1D6"/>
    <path d="M7.59 29.59H6.4v.53h1.19v-.53Z" fill="#F49625"/>
    <path d="M45.53 33.35v-2.24A2.45 2.45 0 0 1 48 28.66h.82a2.45 2.45 0 0 1 2.45 2.45v2.24h-5.74Z" fill="#081B31"/>
    <path d="M48.41 34.74a2.7 2.7 0 1 0 0-5.4 2.7 2.7 0 0 0 0 5.4Z" fill="#081B31"/>
    <path d="M48.41 34a1.96 1.96 0 1 0 0-3.92 1.96 1.96 0 0 0 0 3.92Z" fill="#CED1D6"/>
    <path d="M48.41 32.52a.48.48 0 1 0 0-.96.48.48 0 0 0 0 .96ZM8.91 33.35v-2.24a2.45 2.45 0 0 1 2.45-2.45h.82a2.45 2.45 0 0 1 2.45 2.45v2.24H8.91Z" fill="#081B31"/>
    <path d="M11.78 34.74a2.7 2.7 0 1 0 0-5.4 2.7 2.7 0 0 0 0 5.4Z" fill="#081B31"/>
    <path d="M11.78 34a1.96 1.96 0 1 0 0-3.92 1.96 1.96 0 0 0 0 3.92Z" fill="#CED1D6"/>
    <path d="M11.78 32.52a.48.48 0 1 0 0-.96.48.48 0 0 0 0 .96ZM15.72 33.35v-2.24a2.45 2.45 0 0 1 2.45-2.45H19a2.45 2.45 0 0 1 2.45 2.45v2.24h-5.73Z" fill="#081B31"/>
    <path d="M18.6 34.74a2.7 2.7 0 1 0 0-5.4 2.7 2.7 0 0 0 0 5.4Z" fill="#081B31"/>
    <path d="M18.6 34a1.96 1.96 0 1 0 0-3.92 1.96 1.96 0 0 0 0 3.92Z" fill="#CED1D6"/>
    <path d="M18.6 32.52a.48.48 0 1 0 0-.96.48.48 0 0 0 0 .96Z" fill="#081B31"/>
    <path d="M59.88 22.07a.28.28 0 1 0 0-.56.28.28 0 0 0 0 .56Z" fill="#070F16"/>
    <path d="M59.83 21.9v-.17a.62.62 0 0 1 .58.61v.29a.36.36 0 0 1 .27.31v2.28c0 .2-.23.36-.51.36h-.18v-2.97h.25v-.25a.45.45 0 0 0-.41-.46Z" fill="#0E1823"/>
</svg>
