<svg width="64" height="48" fill="none" xmlns="http://www.w3.org/2000/svg">
    <g clip-path="url(#a)">
        <path d="M32.23 16.17c1.69.05 3.17.16 4.3.31 2.1.28 6.07 3.31 8 5H34.8a258.824 258.824 0 0 0-2.57-5.31ZM23.07 15.94a33.577 33.577 0 0 0-4.87.33 86.271 86.271 0 0 0-8.79 4.59l9.7.39c1.3-1.773 2.62-3.543 3.96-5.31Z" fill="#CED1D6"/>
        <path d="m7 20.31 3.81.07c1.72-.9 6.14-3.13 7.56-4.07 1.73-1.15 11.87-.91 15.58-.49 3.43.38 7.43 3.8 9.38 5.16 13.78 1 15.31 1.71 16.09 5 1.27 5.28-4.82 2.94-11.11 2.94h-20C22.07 28.85 5.72 26 5.72 24c0 0-.03-3.62 1.28-3.69Z" fill="#FF8E1F"/>
        <path d="M19.74 21.13c-2.7 0-4.44-.56-4.44-1.25 0-1.22 2.38-2.16 3.53-2.93.49-.33 2.72-.71 7.4-.71a70.347 70.347 0 0 1 7.15.29c2.51.28 5.83 3.53 6.68 4.6H19.74Z" fill="#081B31"/>
        <path d="M29 16.54c1.74 0 3.23.13 4.33.25 2.06.23 4.89 2.69 6.14 4.08H29.41c-.11-1.44-.25-2.87-.41-4.33ZM22.29 16.62c1-.07 2.32-.11 3.94-.11h2.2c.15 1.45.29 2.89.4 4.34h-8.22a36.56 36.56 0 0 1 1.68-4.23Z" fill="#CED1D6"/>
        <path d="M5.3 29.53c0 .58 8 1.8 8.57 1.8h44.5a1 1 0 0 0 1-1v-2.57a1 1 0 0 0-1-1l-52-1.79a1 1 0 0 0-1 1l-.07 3.56Z" fill="#081B31"/>
        <path d="M17.95 17.78c.38-.21.73-.41 1-.6a7.778 7.778 0 0 1 2.65-.5 37.97 37.97 0 0 0-1.6 4.19h-.26c-3 0-4.18-.64-4.18-1 0-.76 1.32-1.5 2.39-2.09Z" fill="#CED1D6"/>
        <path d="M4.7 28.61c0 .58 8.19 1.8 8.76 1.8H59a1 1 0 0 0 1-1v-2.57a1 1 0 0 0-1-1L5.75 24a1 1 0 0 0-1 1l-.05 3.61Z" fill="#FF8E1F"/>
        <path d="M58.82 25.24h-3.57c-.42 0-.94-2.11-.27-2.11.67 0 3.84.5 3.84 2.11Z" fill="#CED1D6"/>
        <path d="M13.46 30.42c-.2 0-1.32-.15-2.7-.36a4.68 4.68 0 1 1 9.16-1.35c0 .586-.113 1.166-.33 1.71h-6.13ZM45.26 30.42a4.618 4.618 0 0 1-.33-1.71 4.68 4.68 0 1 1 9.36 0 4.622 4.622 0 0 1-.29 1.71h-8.74Z" fill="#081B31"/>
        <path d="M49.61 32.54a3.83 3.83 0 1 0 0-7.66 3.83 3.83 0 0 0 0 7.66Z" fill="#081B31"/>
        <path d="M51.456 30.547a2.61 2.61 0 1 0-3.69-3.691 2.61 2.61 0 0 0 3.69 3.691Z" fill="#CED1D6"/>
        <path d="M51.15 27.16c-1-1-.74.65-1.59 1.5-.85.85-2.52.57-1.5 1.59s.74-.65 1.59-1.5c.85-.85 2.52-.57 1.5-1.59Z" fill="#081B31"/>
        <path d="M48.06 27.16c-1 1 .65.74 1.5 1.59.85.85.57 2.52 1.59 1.5s-.65-.74-1.5-1.59c-.85-.85-.57-2.52-1.59-1.5Z" fill="#081B31"/>
        <path d="M50.113 29.213a.71.71 0 1 0-1.004-1.004.71.71 0 0 0 1.004 1.005Z" fill="#CED1D6"/>
        <path d="M15.24 32.54a3.83 3.83 0 1 0 0-7.66 3.83 3.83 0 0 0 0 7.66Z" fill="#081B31"/>
        <path d="M17.093 30.56a2.61 2.61 0 1 0-3.691-3.69 2.61 2.61 0 0 0 3.69 3.69Z" fill="#CED1D6"/>
        <path d="M16.79 27.16c-1-1-.74.65-1.59 1.5-.85.85-2.52.57-1.5 1.59s.74-.65 1.59-1.5c.85-.85 2.52-.57 1.5-1.59Z" fill="#081B31"/>
        <path d="M13.7 27.16c-1 1 .65.74 1.5 1.59.85.85.57 2.52 1.59 1.5s-.65-.74-1.5-1.59c-.85-.85-.57-2.52-1.59-1.5Z" fill="#081B31"/>
        <path d="M15.75 29.217a.71.71 0 1 0-1.005-1.004.71.71 0 0 0 1.004 1.004Z" fill="#CED1D6"/>
        <path d="M39.69 20h.69a1.42 1.42 0 0 1 1.29 1 .77.77 0 0 1-.77 1h-.69l-.52-2Z" fill="#FFD400"/>
        <path d="M29.06 21.93a.39.39 0 0 0 .39.39h2.75a.39.39 0 0 0 0-.78h-2.75a.39.39 0 0 0-.39.39ZM20 21.93a.39.39 0 0 0 .39.39h2.75a.39.39 0 0 0 0-.78h-2.72a.39.39 0 0 0-.39.39H20Z" fill="#081B31"/>
        <path d="M6.07 21.37h1.19a.41.41 0 0 1 .4.57l-.44 1.48a.83.83 0 0 1-.74.57h-1c.05-.57.06-2.08.59-2.62Z" fill="#FF8E1F" style="mix-blend-mode:multiply"/>
    </g>
    <defs>
        <clipPath id="a">
            <path fill="#fff" d="M0 0h64v48H0z"/>
        </clipPath>
    </defs>
</svg>
