<svg width="24" height="24" fill="none" xmlns="http://www.w3.org/2000/svg">
    <mask id="a" style="mask-type:alpha" maskUnits="userSpaceOnUse" x="0" y="0" width="24" height="24">
        <path fill="#D9D9D9" d="M0 0h24v24H0z"/>
    </mask>
    <g mask="url(#a)">
        <path d="m10 9.75 2-1 2 1V5h-4v4.75ZM7 17v-2h5v2H7Zm-2 4c-.55 0-1.021-.196-1.413-.587A1.928 1.928 0 0 1 3 19V5c0-.55.196-1.021.587-1.413A1.928 1.928 0 0 1 5 3h14c.55 0 1.021.196 1.413.587.391.392.587.863.587 1.413v14c0 .55-.196 1.021-.587 1.413A1.928 1.928 0 0 1 19 21H5Zm0-2h14V5h-3v8l-4-2-4 2V5H5v14Z" fill="#081B31"/>
    </g>
</svg>
