<svg width="1024" height="1024" fill="none" xmlns="http://www.w3.org/2000/svg">
    <path fill="#FF8E1F" d="M.5.5h1023v1023H.5z"/>
    <path stroke="#999" d="M.5.5h1023v1023H.5z"/>
    <path fill-rule="evenodd" clip-rule="evenodd" d="M815.54 454.591c55.332 0 76.268 28.414 86.736 76.269 10.469 47.481 20.189 117.394-14.58 150.668 10.842-46.733-5.608-63.184-64.305-50.098 61.314-47.481 66.922-76.643 44.49-115.151-6.457-11.105-38.066 8.296-68.582 27.025-13.661 8.384-27.102 16.634-37.97 21.952-23.927 11.589-51.593 8.972-51.593 8.972 18.499-19.979 44.139-40.782 65.323-57.97 21.628-17.549 38.611-31.329 38.611-36.618 0-4.486-8.225-23.553-20.936-45.985-12.338 11.216-174.969 16.076-276.66 16.076h-7.478c-102.065 0-264.696-4.86-276.66-16.076C219.225 455.713 211 475.154 211 479.64c0 5.628 17.826 20.118 40.254 38.349 20.784 16.893 45.518 36.999 63.68 56.239 0 0-27.666 2.617-51.593-8.972-11.172-5.41-24.933-13.852-38.839-22.384-30.307-18.594-61.306-37.612-67.713-26.593-22.432 38.135-16.824 67.296 44.49 114.777-58.323-13.085-75.147 3.365-64.305 50.098-35.517-32.9-25.796-102.813-15.328-150.294 10.468-47.855 31.404-76.269 86.736-76.269 0 0 0-7.477-50.097-22.805-50.098-15.329-47.481-40.752 0-40.752 33.675 0 33.499 9.78 33.351 18.001-.061 3.37-.117 6.478 2.166 8.544 7.477 7.103 29.161 11.216 29.161 11.216s35.144-69.539 66.548-83.746C321.29 330.842 406.531 320 508.222 320h7.478c102.065 0 187.306 10.842 218.711 25.049 31.405 14.207 66.548 83.746 66.548 83.746s21.31-4.113 29.161-11.216c2.141-2.034 2.045-5.079 1.94-8.39-.261-8.253-.575-18.155 33.578-18.155 47.854 0 50.098 25.423 0 40.752-50.098 15.328-50.098 22.805-50.098 22.805Zm-303.579-14.954c61.688 0 189.924-2.991 246.003-13.085 13.46-2.244 18.32-19.441 10.095-30.284-13.833-18.319-29.162-34.395-43.742-40.377-41.499-16.824-133.096-23.927-208.617-25.049h-7.478c-75.52 1.122-167.117 7.851-208.616 25.049-14.581 5.982-29.91 21.684-43.743 40.377-8.225 10.843-3.364 28.04 10.095 30.284 55.706 10.094 183.941 13.459 246.003 13.085Zm.001 122.254c35.143-.374 112.159-4.113 124.123-12.712 11.964-8.972 44.116-80.754 44.116-80.754s-34.77 54.21-44.49 66.921c-9.721 12.712-86.363 13.086-123.376 13.086-37.012 0-113.655-.748-123.375-13.086-9.721-12.711-44.49-66.921-44.49-66.921s32.152 71.782 44.116 80.754c11.216 8.599 88.232 13.086 123.376 12.712Zm-3.74 38.508c76.643 0 135.339-8.599 164.127-22.806-41.873 11.59-164.127 10.095-164.127 10.095s-122.254 1.495-164.127-10.095c28.788 14.207 87.485 22.806 164.127 22.806Zm171.979 22.432c20.562 34.022 4.486 57.575-50.472 61.314-52.341 3.365-108.795 3.738-114.777 3.738-7.103 0-75.895-.373-127.862-3.738-55.332-3.739-71.408-27.292-50.472-61.314-44.864 24.301-87.484 23.553-113.655 11.216 6.73 14.207 44.864 41.125 80.755 54.21 35.144 12.712 115.525 13.833 210.86 13.833H515.7c95.709 0 162.631-1.121 197.401-13.833 35.891-13.085 74.025-40.003 80.755-54.21-26.545 11.964-68.792 13.085-113.655-11.216Zm-171.979 9.346c-10.842 0-19.441-8.598-19.441-12.337 0-3.739 8.599-6.73 19.441-6.73 10.843 0 19.441 2.991 19.441 6.73 0 3.739-8.598 12.337-19.441 12.337Z" fill="#fff"/>
</svg>
