<svg width="24" height="24" fill="none" xmlns="http://www.w3.org/2000/svg">
    <mask id="a" style="mask-type:alpha" maskUnits="userSpaceOnUse" x="0" y="0" width="24" height="24">
        <path fill="#D9D9D9" d="M0 0h24v24H0z"/>
    </mask>
    <g mask="url(#a)">
        <path d="M4 21a2.893 2.893 0 0 1-2.125-.875A2.893 2.893 0 0 1 1 18c0-.433.083-.846.25-1.237.167-.392.417-.73.75-1.013V11h2V5h8l4.7 11.075c.1.233.175.467.225.7.05.233.075.475.075.725 0 .967-.342 1.792-1.025 2.475A3.372 3.372 0 0 1 13.5 21c-.683 0-1.312-.18-1.887-.538A3.317 3.317 0 0 1 10.325 19h-3.5a2.977 2.977 0 0 1-1.1 1.45A2.912 2.912 0 0 1 4 21Zm14-1V4h2v14h3v2h-5ZM4 19a.968.968 0 0 0 .713-.288A.967.967 0 0 0 5 18a.967.967 0 0 0-.287-.712A.968.968 0 0 0 4 17a.965.965 0 0 0-.712.288A.965.965 0 0 0 3 18c0 .283.096.52.288.712A.965.965 0 0 0 4 19Zm9.5 0c.417 0 .77-.146 1.062-.438.292-.291.438-.645.438-1.062 0-.417-.146-.77-.438-1.062A1.444 1.444 0 0 0 13.5 16c-.417 0-.77.146-1.062.438A1.444 1.444 0 0 0 12 17.5c0 .417.146.77.438 1.062.291.292.645.438 1.062.438Zm-6.675-2h3.2c.033-.183.071-.354.113-.512.041-.159.104-.321.187-.488h-2.25L5.15 13H4v2c.633 0 1.208.183 1.725.55.517.367.883.85 1.1 1.45Zm2.1-3h4.725l-2.975-7H6v4l2.925 3Zm-.85 2-.462-.475c-.309-.317-.642-.663-1-1.038a69.474 69.474 0 0 0-1-1.025L5.15 13l2.925 3Z" fill="#081B31"/>
    </g>
</svg>
