<svg width="64" height="48" fill="none" xmlns="http://www.w3.org/2000/svg">
    <g clip-path="url(#a)">
        <path d="M48.31 21.79a6.66 6.66 0 1 0 .06 13.319 6.66 6.66 0 0 0-.06-13.319Zm0 11.7a5 5 0 1 1 0-10 5 5 0 0 1 0 10Z" fill="#081B31"/>
        <path d="M48.31 22.94a5.52 5.52 0 1 0 0 11.04 5.52 5.52 0 0 0 0-11.04Zm0 10.55a4.999 4.999 0 1 1 0-9.998 4.999 4.999 0 0 1 0 9.998Z" fill="#081B31"/>
        <path d="M44.28 24.33a1.28 1.28 0 0 0 1.83-.14c1.66-1.9 5.08-2.78 4.15-3a7.51 7.51 0 0 0-7.28 2l1.3 1.14Z" fill="#FF8E1F"/>
        <path d="M18.19 21.51a6.95 6.95 0 1 0 0 13.9 6.95 6.95 0 0 0 0-13.9Zm0 11.46a4.51 4.51 0 1 1 4.51-4.51A4.508 4.508 0 0 1 18.19 33v-.03Z" fill="#081B31"/>
        <path d="M18.19 23a5.49 5.49 0 1 0 0 10.98 5.49 5.49 0 0 0 0-10.98Zm0 10a4.51 4.51 0 1 1 0-9.02 4.51 4.51 0 0 1 0 9.02ZM48.31 31.59a3.13 3.13 0 1 0 0-6.26 3.13 3.13 0 0 0 0 6.26Z" fill="#081B31"/>
        <path d="M48.31 30.44a1.98 1.98 0 1 0 0-3.96 1.98 1.98 0 0 0 0 3.96ZM18.19 31.57a3.11 3.11 0 1 0 0-6.22 3.11 3.11 0 0 0 0 6.22Z" fill="#081B31"/>
        <path d="m41.85 21.61 5.55 8.27 1.33-.95-5.54-8.27-1.34.95ZM18.28 30.43h12.26l2.71-4h-15a2 2 0 1 0 .03 4Z" fill="#081B31"/>
        <path d="M19.55 16.67c2.616.04 5.212.453 7.71 1.23.282.094.515.295.65.56l.45.87a1.5 1.5 0 0 0 1.2.6h2.67l2.53-3.33a5.24 5.24 0 0 1 5.55-1.6l5 1.89-4 9.83a7.26 7.26 0 0 1-6.72 4.51h-7.72l.75-3.54C24.33 20.66 22 19.52 17.1 19l1-1.57a1.63 1.63 0 0 1 1.45-.76Z" fill="#FF8E1F"/>
        <path d="m19 18.63 1.25-1.27h-2.08v.05l-.8 1.22H19Z" fill="#FF8E1F" style="mix-blend-mode:multiply" opacity=".5"/>
        <path d="m27.62 27.72-.75 3.54h7.67a7.26 7.26 0 0 0 6.72-4.51l3.89-9.5S23.79 21.2 27.62 27.72Z" fill="#FF8E1F"/>
        <path d="M29.55 19.93a1.5 1.5 0 0 1-1.2-.6l-.45-.87a1.122 1.122 0 0 0-.65-.56c-.43-.14-.86-.26-1.29-.37v.14a4.38 4.38 0 0 0 2.33 3.52 2.8 2.8 0 0 0 3.58-.84l.3-.42h-2.62ZM29.43 30.43v-2.49c-.17-3.63 12-5.86 12-5.86l-1.71 4.12a6.75 6.75 0 0 1-6.27 4.23h-4.02Z" fill="#081B31"/>
        <path d="M32.11 25.47c-.22.12-.43.24-.62.36V30h.62v-4.53Z" fill="#081B31"/>
        <path d="m40 24.38.29-.73h-3.6a31.63 31.63 0 0 0-3.06 1.09v4.34h-.31v-.76h-.17V25l-.55.26V30h.86a6.3 6.3 0 0 0 5.33-2.91h-.59v-.66l1.09-.31v-.1l.17-.42h-1.23l1.41-.35.19-.48h-1.6l1.77-.39Z" fill="#525F6F"/>
        <path d="M30.06 26.44a2.1 2.1 0 0 0-.64 1.5v2.49h4a6.75 6.75 0 0 0 6.16-4l-9.52.01Z" fill="#081B31"/>
        <path d="m41.77 20.72 5.29-1.31a.56.56 0 0 0 .43-.57c-.15-2.62-1.56-4.49-3.37-6.24l-3.51.27a.4.4 0 0 0-.25.7l3.92 3.69c1.2 1.49-.57 2.49-2.51 3.46Z" fill="#FF8E1F"/>
        <path d="M47.27 17.39H45.4l.75 1a1.64 1.64 0 0 0 1.31.65.53.53 0 0 0 0-.21 7.451 7.451 0 0 0-.19-1.44Z" fill="#FF8E1F" style="mix-blend-mode:multiply"/>
        <path d="m44.12 12.6-3.12.23 4.47 3.93 1.6.1a11 11 0 0 0-2.95-4.26Z" fill="#CED1D6"/>
        <path d="m45.81 16.2-3.24-3.49-1.57.12 4.47 3.93 1.6.1a8.68 8.68 0 0 0-.19-.5l-1.07-.16Z" fill="#CED1D6"/>
        <path d="M43.25 18.66a.72.72 0 1 0 0-1.44.72.72 0 0 0 0 1.44ZM30.77 29.18a.72.72 0 1 0 0-1.44.72.72 0 0 0 0 1.44Z" fill="#081B31"/>
        <path d="M36.09 27.92a1.66 1.66 0 1 0 0-3.32 1.66 1.66 0 0 0 0 3.32Z" fill="#CED1D6"/>
        <path d="M39.88 14.67h-1.94v.3h1.94v-.3Z" fill="#081B31"/>
    </g>
    <defs>
        <clipPath id="a">
            <path fill="#fff" d="M0 0h64v48H0z"/>
        </clipPath>
    </defs>
</svg>
