<svg width="24" height="24" fill="none" xmlns="http://www.w3.org/2000/svg">
    <path d="M4 8h6v2H4V8ZM2 12h6v2H2v-2Z" fill="#081B31"/>
    <path fill-rule="evenodd" clip-rule="evenodd" d="M14 6H7V4h9v5h3l3 4v5h-2c0 .833-.292 1.542-.875 2.125A2.893 2.893 0 0 1 17 21a2.893 2.893 0 0 1-2.125-.875A2.893 2.893 0 0 1 14 18H4v-2h10V6Zm3.712 12.712A.965.965 0 0 1 17 19a.965.965 0 0 1-.712-.288A.965.965 0 0 1 16 18c0-.283.096-.52.288-.712A.965.965 0 0 1 17 17c.283 0 .52.096.712.288A.965.965 0 0 1 18 18c0 .283-.096.52-.288.712ZM20.25 14H16v-3h2l2.25 3Z" fill="#081B31"/>
</svg>
