<svg width="24" height="24" fill="none" xmlns="http://www.w3.org/2000/svg">
    <mask id="a" style="mask-type:alpha" maskUnits="userSpaceOnUse" x="0" y="0" width="24" height="24">
        <path fill="#D9D9D9" d="M0 0h24v24H0z"/>
    </mask>
    <g mask="url(#a)">
        <path d="m18.9 21-5.475-5.475 2.1-2.1L21 18.9 18.9 21ZM5.1 21 3 18.9 9.9 12l-1.7-1.7-.7.7-1.275-1.275v2.05l-.7.7L2.5 9.45l.7-.7h2.05L4 7.5l3.55-3.55a3.144 3.144 0 0 1 1.075-.725C9.008 3.075 9.4 3 9.8 3s.792.075 1.175.225c.383.15.742.392 1.075.725l-2.3 2.3L11 7.5l-.7.7L12 9.9l2.25-2.25a4.112 4.112 0 0 1-.162-.575c-.042-.2-.063-.4-.063-.6 0-.983.338-1.813 1.013-2.488.675-.675 1.504-1.012 2.487-1.012.25 0 .488.025.713.075.225.05.454.125.687.225L16.45 5.75l1.8 1.8 2.475-2.475c.117.233.196.462.238.687.041.225.062.463.062.713 0 .983-.337 1.812-1.012 2.487s-1.505 1.013-2.488 1.013c-.2 0-.4-.017-.6-.05a2.295 2.295 0 0 1-.575-.175L5.1 21Z" fill="#081B31"/>
    </g>
</svg>
