<svg width="64" height="48" fill="none" xmlns="http://www.w3.org/2000/svg">
    <path d="M56.86 30.7c0 2.22-1 2.26-2.31 2.26H41.73a.35.35 0 0 1-.35-.35V14.87a.35.35 0 0 1 .35-.35h8.74A3.57 3.57 0 0 1 53 16.07s3.9 4.62 3.9 8.43l-.04 6.2Z" fill="#FF8E1F"/>
    <path d="M50.36 27.92h6.5v2.78c0 2.22-1 2.26-2.31 2.26h-4.19v-5.04ZM43.52 20.07v-4.92h6.54a2.85 2.85 0 0 1 2.41 1.3 22.188 22.188 0 0 1 3 4.83v3.48c-4.47.01-11.95-3.84-11.95-4.69Z" fill="#081B31"/>
    <path d="M50.06 15.43a2.57 2.57 0 0 1 2.19 1.19 22 22 0 0 1 2.9 4.67l-2.74 2.74a28.156 28.156 0 0 1-4.33-1.5c-2.58-1.12-4.17-2.19-4.31-2.51v-4.59h6.29Z" fill="#CED1D6"/>
    <path d="M56 22.14c.15 0 .28.22.33.53.28-.286.434-.67.43-1.07h-.5v-2.81h1.07a.35.35 0 0 1 .35.35v2.12a.35.35 0 0 1-.35.35h-.23a1.661 1.661 0 0 1-.75 1.61c0 .38-.18.66-.35.66-.17 0-.36-.39-.36-.86s.11-.88.36-.88Z" fill="#081B31"/>
    <path d="M56.88 27.36c.003.181-.014.362-.05.54h-1.31a7.825 7.825 0 0 1-.49-2 5.32 5.32 0 0 1 1.85.32v1.14Z" fill="#CED1D6"/>
    <path d="M46.94 26.71A5.44 5.44 0 0 0 43.59 33h-1.86a.35.35 0 0 1-.35-.35v-5.9l5.56-.04Z" fill="#081B31"/>
    <path d="M42.7 31.79a5.229 5.229 0 0 1 4-5.07h.1a5.223 5.223 0 0 1 1.18-.14h.3a5.21 5.21 0 0 1 4.91 5.2v.08h3.58v.36l-.05.05-.06.05H42.83a5.19 5.19 0 0 1-.13-.53ZM45.28 23.98h-1.93a.35.35 0 0 0-.35.35v.57c0 .193.157.35.35.35h1.93a.35.35 0 0 0 .35-.35v-.57a.35.35 0 0 0-.35-.35Z" fill="#161616"/>
    <path d="M48.24 35.54a4.03 4.03 0 1 0 0-8.06 4.03 4.03 0 0 0 0 8.06Z" fill="#081B31"/>
    <path d="M50.186 33.455a2.75 2.75 0 1 0-3.889-3.89 2.75 2.75 0 0 0 3.89 3.89Z" fill="#CED1D6"/>
    <path d="M49.86 29.88c-1.07-1.07-.78.68-1.68 1.58-.9.9-2.65.6-1.58 1.68 1.07 1.08.78-.68 1.68-1.58.9-.9 2.66-.56 1.58-1.68Z" fill="#081B31"/>
    <path d="M46.61 29.88c-1.07 1.07.68.78 1.58 1.68.9.9.6 2.65 1.68 1.58 1.08-1.07-.68-.78-1.58-1.68-.9-.9-.61-2.65-1.68-1.58Z" fill="#081B31"/>
    <path d="M48.772 32.04a.75.75 0 1 0-1.06-1.06.75.75 0 0 0 1.06 1.06Z" fill="#CED1D6"/>
    <path d="M39.53 12.46H8.81c-.69 0-1.25.56-1.25 1.25v17.97c0 .69.56 1.25 1.25 1.25h30.72c.69 0 1.25-.56 1.25-1.25V13.71c0-.69-.56-1.25-1.25-1.25Z" fill="#FF8E1F"/>
    <path d="M40.78 30.94v.75a1.25 1.25 0 0 1-1.25 1.25H8.8a1.25 1.25 0 0 1-1.24-1.24v-.75l33.22-.01Z" fill="#161616"/>
    <path d="M11 32a5 5 0 1 1 10 0H11Z" fill="#161616"/>
    <path d="M15.95 35.54a4.03 4.03 0 1 0 0-8.06 4.03 4.03 0 0 0 0 8.06Z" fill="#081B31"/>
    <path d="M17.894 33.457a2.75 2.75 0 1 0-3.889-3.889 2.75 2.75 0 0 0 3.889 3.89Z" fill="#CED1D6"/>
    <path d="M17.58 29.88c-1.07-1.07-.78.68-1.68 1.58-.9.9-2.65.6-1.58 1.68 1.07 1.08.78-.68 1.68-1.58.9-.9 2.65-.56 1.58-1.68Z" fill="#081B31"/>
    <path d="M14.32 29.88c-1.07 1.07.68.78 1.58 1.68.9.9.6 2.65 1.68 1.58 1.08-1.07-.68-.78-1.58-1.68-.9-.9-.61-2.65-1.68-1.58Z" fill="#081B31"/>
    <path d="M16.48 32.043a.75.75 0 1 0-1.061-1.06.75.75 0 0 0 1.06 1.06ZM56.45 29.23h.41v1.32h-.41a.66.66 0 1 1 0-1.32Z" fill="#CED1D6"/>
    <path d="M7.56 25a1.25 1.25 0 0 1 1.09 1.24V29a1.25 1.25 0 0 1-1.09 1.24V25Z" fill="#FF8E1F" style="mix-blend-mode:multiply"/>
</svg>
