<svg width="64" height="48" fill="none" xmlns="http://www.w3.org/2000/svg">
    <path d="M50.33 27.85h-.67v.74h.67v-.74Z" fill="#FF8E1F"/>
    <path d="m47.808 31.267-.06 1.299.39.018.06-1.299-.39-.018ZM46.066 32.42l-.138.364 1.217.458.137-.365-1.216-.458ZM47.295 33.788l-.812 1.016.305.243.811-1.015-.304-.244ZM48.485 33.835l-.326.214.715 1.086.326-.215-.715-1.085ZM49.838 32.59l-1.254.344.104.376 1.253-.344-.103-.376Z" fill="#CED1D6"/>
    <path d="M40.48 34.09H36.1a6.897 6.897 0 0 1-1.9-.27l-1.56-.45v-1.48h9.75v.28a1.91 1.91 0 0 1-1.91 1.92ZM42.47 22.22l-2.19.4a.29.29 0 0 1-.33-.23.29.29 0 0 1 .23-.33l2.19-.4.1.56ZM47.93 29.68a3.65 3.65 0 1 0 0 7.3 3.65 3.65 0 0 0 0-7.3Zm0 5.5a1.85 1.85 0 1 1 1.85-1.85 1.85 1.85 0 0 1-1.85 1.86v-.01Z" fill="#081B31"/>
    <path d="M47.93 31.12a2.21 2.21 0 1 0 0 4.42 2.21 2.21 0 0 0 0-4.42Zm0 4.06a1.85 1.85 0 1 1 1.85-1.85 1.85 1.85 0 0 1-1.85 1.86v-.01Z" fill="#CED1D6"/>
    <path d="M49.285 33.495a1.141 1.141 0 1 0-2.28-.114 1.141 1.141 0 0 0 2.28.114Z" fill="#CED1D6"/>
    <path d="M48.1 33.43h-.06a.23.23 0 0 1-.31-.08l-1.44-2.46.46-.27 1.44 2.46a.23.23 0 0 1-.09.35Z" fill="#CED1D6"/>
    <path d="m42.408 23.044-.68.4 5.044 8.578.68-.4-5.044-8.578Z" fill="#FF8E1F"/>
    <path d="M46.35 27.38c-2.71 0-3.28 3.33-3.28 5.38h1a.69.69 0 0 0 .68-.55A2.75 2.75 0 0 1 47.68 30h3.72v-.4c-.4-.75-1.97-2.22-5.05-2.22Z" fill="#FF8E1F"/>
    <path d="M44.48 31.94c-.06.34-.37.46-.71.46h-.69v.35h1a.69.69 0 0 0 .68-.55 2.75 2.75 0 0 1 2.92-2.2h3.72v-.4h-3.9a2.88 2.88 0 0 0-3.02 2.34Z" fill="#081B31"/>
    <path d="M46.8 22.95h-1.6v2.14h1.6v-2.14Z" fill="#FF8E1F"/>
    <path d="M46.91 25.21H47a.31.31 0 0 0 .31-.31v-1.75a.31.31 0 0 0-.31-.31h-.13a.11.11 0 0 0-.11.11v2.15a.11.11 0 0 0 .15.11ZM32.64 15.93h-.34a.55.55 0 0 1-.52-.35l-1.12-2.83.31-.12 1.12 2.83a.22.22 0 0 0 .21.14h.34v.33ZM25.23 26.35H14.1v-1.66h11.13a.65.65 0 0 1 .65.65v.36a.65.65 0 0 1-.65.65ZM22.75 33.35h18.47a.35.35 0 0 0 .35-.35v-.14H22.75v.49Z" fill="#081B31"/>
    <path d="M20.71 34.06a.14.14 0 1 1 0-.27h2.35a30.343 30.343 0 0 0 5.35-.72.14.14 0 1 1 .08.26 29.93 29.93 0 0 1-5.43.73h-2.35Z" fill="#081B31"/>
    <path d="M20.71 34.37a.14.14 0 1 1 0-.27h2.35a38.65 38.65 0 0 0 4.1-.44.14.14 0 0 1 0 .27c-1.371.22-2.753.367-4.14.44h-2.31Z" fill="#081B31"/>
    <path d="m26.69 33.372-.228.028.086.694.228-.028-.086-.694ZM23.67 33.93h-2.35a29.93 29.93 0 0 1-5.43-.73.14.14 0 0 1 .08-.26c1.762.4 3.555.64 5.36.72h2.34a.14.14 0 0 1 0 .27Z" fill="#081B31"/>
    <path d="M16.43 32.86h-.45v.54h.45v-.54Z" fill="#081B31"/>
    <path d="M42.39 29h-.83a2.53 2.53 0 0 0-1.47.44l-2.64 1.92v1.16h4.94V29Z" fill="#FF8E1F"/>
    <path d="M37.48 26.98h-4.56v5.05h4.56v-5.05Z" fill="#FF8E1F"/>
    <path d="M37.48 28.12h-4.56v.37h4.56v-.37Z" fill="#081B31"/>
    <path d="M32.91 30.82h-6.78v1.21h6.78v-1.21Z" fill="#FF8E1F"/>
    <path d="m33.81 25.95-.58-4.25a.53.53 0 0 0-.52-.46h-.31a.569.569 0 0 0-.56.64l.79 5.75h5.44a.3.3 0 0 0 .3-.3v-.73a.24.24 0 0 0-.24-.24h-3.82a.5.5 0 0 1-.5-.41Z" fill="#081B31"/>
    <path d="M33.2 12.76h-.56v18.53h.56V12.76ZM26 22.25a1 1 0 0 0-.7-.25h-6v.36h5V23h-2.67v.27h2.66v.52h-1.1v.36h1.1v1.08h.36v-1.08h1.23a.42.42 0 0 0 .42-.42v-.59a1.16 1.16 0 0 0-.3-.89Zm-1.33.12h.67a.62.62 0 0 1 .42.15c.124.13.195.3.2.48h-1.31l.02-.63Zm1.23 1.42h-1.25v-.52h1.3v.46a.061.061 0 0 1-.046.05.06.06 0 0 1-.024 0l.02.01Z" fill="#081B31"/>
    <path d="M32.92 13.13h-8.59a1.12 1.12 0 0 0-1.12 1.12v8.37H14.1v-8.43A3.24 3.24 0 0 1 17.46 11l15.64.58h.2l8.92 1.78a.22.22 0 0 1 .17.21v.09h-2.13l-7.34-.53Z" fill="#081B31"/>
    <path d="M46.24 22h-2.15a.74.74 0 0 1-.71-.53l-2.07-7.1a.29.29 0 0 1 .28-.37l-.22-.39h-1.11l1.44 9.15a3.87 3.87 0 0 1 0 1.22l-.87 5.36a2.29 2.29 0 0 1-2.26 1.92h-3.51a1.22 1.22 0 0 1-1.22-1.22v-3.91a.29.29 0 0 0-.29-.29h-1.26a.29.29 0 0 0-.29.29v3.92a1.22 1.22 0 0 1-1.22 1.22H28.3a2.29 2.29 0 0 1-2.23-1.77l-.82-3.5a2.878 2.878 0 0 0-.22-.62L23.88 23a.72.72 0 0 0-.64-.4H14.1v7.64a2.81 2.81 0 0 0 .64 1.79l.34.41a1.07 1.07 0 0 0 .83.39h25.88a2.45 2.45 0 0 0 2.3-1.59l2.36-6.31a3.53 3.53 0 0 0-.21-2.93Z" fill="#FF8E1F"/>
    <path d="M20.98 37.05a3.65 3.65 0 1 0 0-7.3 3.65 3.65 0 0 0 0 7.3Z" fill="#081B31"/>
    <path d="M20.98 35.61a2.21 2.21 0 1 0 0-4.42 2.21 2.21 0 0 0 0 4.42Z" fill="#CED1D6"/>
    <path d="M21 28.08a4.71 4.71 0 0 0-4.86 4.74h1.24a.69.69 0 0 0 .68-.55A2.79 2.79 0 0 1 21 30.08a2.79 2.79 0 0 1 2.9 2.22.69.69 0 0 0 .68.55h1.27A4.71 4.71 0 0 0 21 28.08Z" fill="#FF8E1F"/>
    <path d="M37.93 32.85H26.85v-.08a.52.52 0 0 1 .52-.52h10.56c1.69 0 2.51-.9 2.83-2.56.14-.71 1-6.48 1-6.53h.05a.28.28 0 0 1 .28.31c-.09 1.19-.61 5.75-.74 6.38-.4 2.05-1.35 3-3.42 3ZM14.36 31.18H14a.46.46 0 0 1-.46-.46v-1.08a.46.46 0 0 1 .46-.46h.37l-.01 2Z" fill="#081B31"/>
    <path d="M43.92 22h2.32l-4.62-8h-.2a.29.29 0 0 0-.28.37l2.07 7.1a.74.74 0 0 0 .71.53Z" fill="#CED1D6"/>
    <path d="M46.42 22.41h-4.77l.06.36v.06h4.85a3.523 3.523 0 0 0-.14-.42ZM21.54 23.93a.32.32 0 0 1-.32-.32v-1.43h.67v1.43a.32.32 0 0 1-.35.32Z" fill="#081B31"/>
    <path d="M22.06 23.13h-1.08v.27h1.08v-.27Z" fill="#E73324"/>
    <path d="M15.87 23.93a.32.32 0 0 1-.32-.32v-1.43h.67v1.43a.32.32 0 0 1-.35.32Z" fill="#081B31"/>
    <path d="M16.39 23.13h-1.08v.27h1.08v-.27Z" fill="#E73324"/>
    <path d="m42.63 26.47 3.68.11a.35.35 0 1 0 0-.7l-3.68.12a.25.25 0 0 0-.24.25.25.25 0 0 0 .24.22ZM44.32 24.53h-1.68a.17.17 0 0 0-.17.17v.63c0 .094.076.17.17.17h1.68a.17.17 0 0 0 .17-.17v-.63a.17.17 0 0 0-.17-.17Z" fill="#081B31"/>
    <path d="M44.27 24.69h-1.59a.08.08 0 0 0-.08.08v.5c0 .044.036.08.08.08h1.59a.08.08 0 0 0 .08-.08v-.5a.08.08 0 0 0-.08-.08ZM50.56 28.14l-.81-.14a.6.6 0 0 1-.53-.59v-.14a.6.6 0 0 1 .53-.59l.81-.09v1.55Z" fill="#FF8E1F"/>
    <path d="M50.62 28.21h.09a.22.22 0 0 0 .22-.22v-1.22a.22.22 0 0 0-.22-.22h-.09a.08.08 0 0 0-.08.08v1.49a.078.078 0 0 0 .02.063.08.08 0 0 0 .06.027Z" fill="#081B31"/>
</svg>
