<svg width="24" height="24" fill="none" xmlns="http://www.w3.org/2000/svg">
    <mask id="a" style="mask-type:alpha" maskUnits="userSpaceOnUse" x="0" y="0" width="24" height="24">
        <path fill="#D9D9D9" d="M0 0h24v24H0z"/>
    </mask>
    <g mask="url(#a)">
        <path d="M7 23 9.8 8.9 8 9.6V13H6V8.3l5.05-2.15c.233-.1.48-.158.738-.175a1.82 1.82 0 0 1 .737.1c.233.083.454.2.663.35.208.15.379.342.512.575l1 1.6c.433.7 1.02 1.275 1.762 1.725.742.45 1.588.675 2.538.675v2c-1.167 0-2.208-.242-3.125-.725a8.03 8.03 0 0 1-2.35-1.85L12.9 13.5l2.1 2V23h-2v-6.5l-2.1-1.6L9.1 23H7Zm6.5-17.5c-.55 0-1.02-.196-1.412-.588A1.923 1.923 0 0 1 11.5 3.5c0-.55.196-1.021.588-1.413A1.925 1.925 0 0 1 13.5 1.5c.55 0 1.021.196 1.413.587.391.392.587.863.587 1.413s-.196 1.02-.587 1.412A1.927 1.927 0 0 1 13.5 5.5Z" fill="#081B31"/>
    </g>
</svg>
