<svg width="24" height="24" fill="none" xmlns="http://www.w3.org/2000/svg">
    <path fill-rule="evenodd" clip-rule="evenodd" d="M3.284 4H2V2h1.284A3 3 0 0 1 6.25 4.544l1.478 9.608a1 1 0 0 0 .989.848H10V5h10v10h2v2H8.716a3 3 0 0 1-2.965-2.544L4.273 4.848A1 1 0 0 0 3.284 4ZM18 15h-6V7h2v2h2V7h2v8Z" fill="#081B31"/>
    <path d="M9 22c-.55 0-1.02-.195-1.412-.587A1.927 1.927 0 0 1 7 20c0-.55.196-1.021.588-1.413A1.924 1.924 0 0 1 9 18c.55 0 1.02.195 1.412.587.169.169.301.352.398.55.127.262.19.55.19.863 0 .55-.196 1.021-.588 1.413A1.924 1.924 0 0 1 9 22ZM18 22c-.55 0-1.02-.195-1.412-.587a2.012 2.012 0 0 1-.416-.59A1.957 1.957 0 0 1 16 20c0-.55.196-1.021.588-1.413A1.924 1.924 0 0 1 18 18c.55 0 1.021.195 1.413.587.391.392.587.863.587 1.413s-.196 1.021-.587 1.413A1.927 1.927 0 0 1 18 22Z" fill="#081B31"/>
</svg>
